ply
format ascii 1.0
comment Exported from Blender-2.82 (sub 7)
element vertex 147
property float x
property float y
property float z
element face 278
property list uchar int vertex_indices
end_header
0 -0.022498574 -0.019999536
0 -0.022498574 0
0 -0.022498574 0.019999536
0 0.022498574 -0.019999536
0 0.022498574 0
0 0.022498574 0.019999536
1.9801205e-12 -0.021244207 -0.060002308
1.9801205e-12 -0.021244207 -0.019999534
1.9801205e-12 -0.021244207 0.019999534
1.9801205e-12 -0.021244207 0.060002308
1.9801205e-12 0.021244207 -0.060002308
1.9801205e-12 0.021244207 -0.019999534
1.9801205e-12 0.021244207 0.019999534
1.9801205e-12 0.021244207 0.060002308
0.0041663325 -0.020831661 -0.060002308
0.0041663325 -0.020831661 -0.019999534
0.0041663325 -0.020831661 0.019999534
0.0041663325 -0.020831661 0.060002308
0.0041663325 0.020831661 -0.060002308
0.0041663325 0.020831661 -0.019999534
0.0041663325 0.020831661 0.019999534
0.0041663325 0.020831661 0.060002308
0.0044997148 0.022498574 -0.019999536
0.0044997148 0.022498574 0
0.0044997148 0.022498574 0.019999536
0.0044997153 -0.022498574 -0.019999536
0.0044997153 -0.022498574 0
0.0044997153 -0.022498574 0.019999536
0.0078899022 -0.019724755 -0.060002308
0.0078899022 -0.019724755 -0.019999534
0.0078899022 -0.019724755 0.019999534
0.0078899022 -0.019724755 0.060002308
0.0078899022 0.019724755 -0.060002308
0.0078899022 0.019724755 -0.019999534
0.0078899022 0.019724755 0.019999534
0.0078899022 0.019724755 0.060002308
0.0089994296 0.022498574 -0.019999536
0.0089994296 0.022498574 0
0.0089994296 0.022498574 0.019999536
0.0089994306 -0.022498574 -0.019999536
0.0089994306 -0.022498574 0
0.0089994306 -0.022498574 0.019999536
0.010930056 -0.018216759 -0.060002308
0.010930056 -0.018216759 -0.019999536
0.010930056 -0.018216759 0.019999536
0.010930056 -0.018216759 0.060002308
0.010930056 0.018216759 -0.060002308
0.010930056 0.018216759 -0.019999536
0.010930056 0.018216759 0.019999536
0.010930056 0.018216759 0.060002308
0.013271153 -0.016588943 -0.060002308
0.013271153 -0.016588943 -0.019999538
0.013271153 -0.016588943 0.019999538
0.013271153 -0.016588943 0.060002308
0.013271153 0.016588943 -0.060002308
0.013271153 0.016588943 -0.019999538
0.013271153 0.016588943 0.019999538
0.013271153 0.016588943 0.060002308
0.013499145 -0.022498574 -0.019999536
0.013499145 -0.022498574 0
0.013499145 -0.022498574 0.019999536
0.013499145 0.022498574 -0.019999536
0.013499145 0.022498574 0
0.013499145 0.022498574 0.019999536
0.015021925 -0.015021925 -0.060002308
0.015021925 -0.015021925 -0.019999538
0.015021925 -0.015021925 0.019999538
0.015021925 -0.015021925 0.060002308
0.015021925 0.015021925 -0.060002308
0.015021925 0.015021925 -0.019999538
0.015021925 0.015021925 0.019999538
0.015021925 0.015021925 0.060002308
0.016588943 -0.013271153 -0.060002308
0.016588943 -0.013271153 -0.019999538
0.016588943 -0.013271153 0.019999538
0.016588943 -0.013271153 0.060002308
0.016588943 0.013271153 -0.060002308
0.016588943 0.013271153 -0.019999538
0.016588943 0.013271153 0.019999538
0.016588943 0.013271153 0.060002308
0.017998859 -0.022498574 -0.019999536
0.017998859 -0.022498574 0
0.017998859 -0.022498574 0.019999536
0.017998859 0.022498574 -0.019999536
0.017998859 0.022498574 0
0.017998859 0.022498574 0.019999536
0.018216759 -0.010930056 -0.060002308
0.018216759 -0.010930056 -0.019999536
0.018216759 -0.010930056 0.019999536
0.018216759 -0.010930056 0.060002308
0.018216759 0.010930056 -0.060002308
0.018216759 0.010930056 -0.019999536
0.018216759 0.010930056 0.019999536
0.018216759 0.010930056 0.060002308
0.019724755 -0.0078899022 -0.060002308
0.019724755 -0.0078899022 -0.019999534
0.019724755 -0.0078899022 0.019999534
0.019724755 -0.0078899022 0.060002308
0.019724755 0.0078899022 -0.060002308
0.019724755 0.0078899022 -0.019999534
0.019724755 0.0078899022 0.019999534
0.019724755 0.0078899022 0.060002308
0.020831661 -0.0041663325 -0.060002308
0.020831661 -0.0041663325 -0.019999534
0.020831661 -0.0041663325 0.019999534
0.020831661 -0.0041663325 0.060002308
0.020831661 0.0041663325 -0.060002308
0.020831661 0.0041663325 -0.019999534
0.020831661 0.0041663325 0.019999534
0.020831661 0.0041663325 0.060002308
0.021244207 9.3592738e-12 -0.060002308
0.021244207 9.3592738e-12 -0.019999534
0.021244207 9.3592738e-12 0.019999534
0.021244207 9.3592738e-12 0.060002308
0.022498574 -0.022498574 -0.019999536
0.022498574 -0.022498574 0
0.022498574 -0.022498574 0.019999536
0.022498574 -0.017998859 -0.019999536
0.022498574 -0.017998859 0
0.022498574 -0.017998859 0.019999536
0.022498574 -0.013499145 -0.019999536
0.022498574 -0.013499145 0
0.022498574 -0.013499145 0.019999536
0.022498574 -0.0089994296 -0.019999536
0.022498574 -0.0089994296 0
0.022498574 -0.0089994296 0.019999536
0.022498574 -0.0044997148 -0.019999536
0.022498574 -0.0044997148 0
0.022498574 -0.0044997148 0.019999536
0.022498574 0 -0.019999536
0.022498574 0 0
0.022498574 0 0.019999536
0.022498574 0.0044997153 -0.019999536
0.022498574 0.0044997153 0
0.022498574 0.0044997153 0.019999536
0.022498574 0.0089994306 -0.019999536
0.022498574 0.0089994306 0
0.022498574 0.0089994306 0.019999536
0.022498574 0.013499145 -0.019999536
0.022498574 0.013499145 0
0.022498574 0.013499145 0.019999536
0.022498574 0.017998859 -0.019999536
0.022498574 0.017998859 0
0.022498574 0.017998859 0.019999536
0.022498574 0.022498574 -0.019999536
0.022498574 0.022498574 0
0.022498574 0.022498574 0.019999536
3 84 85 146
3 84 146 145
3 118 119 116
3 118 116 115
3 56 70 146
3 56 146 85
3 74 66 116
3 74 116 119
3 70 78 143
3 70 143 146
3 78 92 140
3 78 140 143
3 92 100 137
3 92 137 140
3 100 108 134
3 100 134 137
3 108 112 131
3 108 131 134
3 112 104 128
3 112 128 131
3 104 96 125
3 104 125 128
3 96 88 122
3 96 122 125
3 88 74 119
3 88 119 122
3 145 146 143
3 145 143 142
3 142 143 140
3 142 140 139
3 139 140 137
3 139 137 136
3 136 137 134
3 136 134 133
3 133 134 131
3 133 131 130
3 130 131 128
3 130 128 127
3 127 128 125
3 127 125 124
3 124 125 122
3 124 122 121
3 121 122 119
3 121 119 118
3 66 52 82
3 66 82 116
3 52 44 60
3 52 60 82
3 44 30 41
3 44 41 60
3 30 16 27
3 30 27 41
3 16 8 2
3 16 2 27
3 12 20 24
3 12 24 5
3 20 34 38
3 20 38 24
3 34 48 63
3 34 63 38
3 48 56 85
3 48 85 63
3 115 116 82
3 115 82 81
3 81 82 60
3 81 60 59
3 59 60 41
3 59 41 40
3 40 41 27
3 40 27 26
3 26 27 2
3 26 2 1
3 4 5 24
3 4 24 23
3 23 24 38
3 23 38 37
3 37 38 63
3 37 63 62
3 62 63 85
3 62 85 84
3 34 20 21
3 34 21 35
3 48 34 35
3 48 35 49
3 56 48 49
3 56 49 57
3 78 70 71
3 78 71 79
3 52 66 67
3 52 67 53
3 92 78 79
3 92 79 93
3 44 52 53
3 44 53 45
3 100 92 93
3 100 93 101
3 30 44 45
3 30 45 31
3 108 100 101
3 108 101 109
3 16 30 31
3 16 31 17
3 112 108 109
3 112 109 113
3 8 16 17
3 8 17 9
3 104 112 113
3 104 113 105
3 96 104 105
3 96 105 97
3 88 96 97
3 88 97 89
3 70 56 57
3 70 57 71
3 74 88 89
3 74 89 75
3 66 74 75
3 66 75 67
3 20 12 13
3 20 13 21
3 71 57 49
3 49 35 21
3 21 13 9
3 9 17 31
3 31 45 53
3 53 67 75
3 75 89 97
3 97 105 113
3 113 109 101
3 101 93 79
3 79 71 49
3 49 21 9
3 9 31 53
3 53 75 97
3 97 113 101
3 101 79 49
3 49 9 53
3 53 97 101
3 49 53 101
3 84 145 144
3 84 144 83
3 118 115 114
3 118 114 117
3 55 83 144
3 55 144 69
3 73 117 114
3 73 114 65
3 69 144 141
3 69 141 77
3 77 141 138
3 77 138 91
3 91 138 135
3 91 135 99
3 99 135 132
3 99 132 107
3 107 132 129
3 107 129 111
3 111 129 126
3 111 126 103
3 103 126 123
3 103 123 95
3 95 123 120
3 95 120 87
3 87 120 117
3 87 117 73
3 145 142 141
3 145 141 144
3 142 139 138
3 142 138 141
3 139 136 135
3 139 135 138
3 136 133 132
3 136 132 135
3 133 130 129
3 133 129 132
3 130 127 126
3 130 126 129
3 127 124 123
3 127 123 126
3 124 121 120
3 124 120 123
3 121 118 117
3 121 117 120
3 65 114 80
3 65 80 51
3 51 80 58
3 51 58 43
3 43 58 39
3 43 39 29
3 29 39 25
3 29 25 15
3 15 25 0
3 15 0 7
3 11 3 22
3 11 22 19
3 19 22 36
3 19 36 33
3 33 36 61
3 33 61 47
3 47 61 83
3 47 83 55
3 115 81 80
3 115 80 114
3 81 59 58
3 81 58 80
3 59 40 39
3 59 39 58
3 40 26 25
3 40 25 39
3 26 1 0
3 26 0 25
3 4 23 22
3 4 22 3
3 23 37 36
3 23 36 22
3 37 62 61
3 37 61 36
3 62 84 83
3 62 83 61
3 33 32 18
3 33 18 19
3 47 46 32
3 47 32 33
3 55 54 46
3 55 46 47
3 77 76 68
3 77 68 69
3 51 50 64
3 51 64 65
3 91 90 76
3 91 76 77
3 43 42 50
3 43 50 51
3 99 98 90
3 99 90 91
3 29 28 42
3 29 42 43
3 107 106 98
3 107 98 99
3 15 14 28
3 15 28 29
3 111 110 106
3 111 106 107
3 7 6 14
3 7 14 15
3 103 102 110
3 103 110 111
3 95 94 102
3 95 102 103
3 87 86 94
3 87 94 95
3 69 68 54
3 69 54 55
3 73 72 86
3 73 86 87
3 65 64 72
3 65 72 73
3 19 18 10
3 19 10 11
3 46 54 68
3 68 76 90
3 90 98 106
3 106 110 102
3 102 94 86
3 86 72 64
3 64 50 42
3 42 28 14
3 14 6 10
3 10 18 32
3 32 46 68
3 68 90 106
3 106 102 86
3 86 64 42
3 42 14 10
3 10 32 68
3 68 106 86
3 86 42 10
3 68 86 10
