ply
format ascii 1.0
comment Exported from Blender-2.82 (sub 7)
element vertex 280
property float x
property float y
property float z
element face 556
property list uchar int vertex_indices
end_header
-0.022498574 -0.022498574 -0.019999536
-0.022498574 -0.022498574 0
-0.022498574 -0.022498574 0.019999536
-0.022498574 -0.017998859 -0.019999536
-0.022498574 -0.017998859 0
-0.022498574 -0.017998859 0.019999536
-0.022498574 -0.013499145 -0.019999536
-0.022498574 -0.013499145 0
-0.022498574 -0.013499145 0.019999536
-0.022498574 -0.0089994296 -0.019999536
-0.022498574 -0.0089994296 0
-0.022498574 -0.0089994296 0.019999536
-0.022498574 -0.0044997148 -0.019999536
-0.022498574 -0.0044997148 0
-0.022498574 -0.0044997148 0.019999536
-0.022498574 0 -0.019999536
-0.022498574 0 0
-0.022498574 0 0.019999536
-0.022498574 0.0044997153 -0.019999536
-0.022498574 0.0044997153 0
-0.022498574 0.0044997153 0.019999536
-0.022498574 0.0089994306 -0.019999536
-0.022498574 0.0089994306 0
-0.022498574 0.0089994306 0.019999536
-0.022498574 0.013499145 -0.019999536
-0.022498574 0.013499145 0
-0.022498574 0.013499145 0.019999536
-0.022498574 0.017998859 -0.019999536
-0.022498574 0.017998859 0
-0.022498574 0.017998859 0.019999536
-0.022498574 0.022498574 -0.019999536
-0.022498574 0.022498574 0
-0.022498574 0.022498574 0.019999536
-0.021244207 9.3592738e-12 -0.060002308
-0.021244207 9.3592738e-12 -0.019999534
-0.021244207 9.3592738e-12 0.019999534
-0.021244207 9.3592738e-12 0.060002308
-0.020831661 -0.0041663325 -0.060002308
-0.020831661 -0.0041663325 -0.019999534
-0.020831661 -0.0041663325 0.019999534
-0.020831661 -0.0041663325 0.060002308
-0.020831661 0.0041663325 -0.060002308
-0.020831661 0.0041663325 -0.019999534
-0.020831661 0.0041663325 0.019999534
-0.020831661 0.0041663325 0.060002308
-0.019724755 -0.0078899022 -0.060002308
-0.019724755 -0.0078899022 -0.019999534
-0.019724755 -0.0078899022 0.019999534
-0.019724755 -0.0078899022 0.060002308
-0.019724755 0.0078899022 -0.060002308
-0.019724755 0.0078899022 -0.019999534
-0.019724755 0.0078899022 0.019999534
-0.019724755 0.0078899022 0.060002308
-0.018216759 -0.010930056 -0.060002308
-0.018216759 -0.010930056 -0.019999536
-0.018216759 -0.010930056 0.019999536
-0.018216759 -0.010930056 0.060002308
-0.018216759 0.010930056 -0.060002308
-0.018216759 0.010930056 -0.019999536
-0.018216759 0.010930056 0.019999536
-0.018216759 0.010930056 0.060002308
-0.017998859 -0.022498574 -0.019999536
-0.017998859 -0.022498574 0
-0.017998859 -0.022498574 0.019999536
-0.017998859 0.022498574 -0.019999536
-0.017998859 0.022498574 0
-0.017998859 0.022498574 0.019999536
-0.016588943 -0.013271153 -0.060002308
-0.016588943 -0.013271153 -0.019999538
-0.016588943 -0.013271153 0.019999538
-0.016588943 -0.013271153 0.060002308
-0.016588943 0.013271153 -0.060002308
-0.016588943 0.013271153 -0.019999538
-0.016588943 0.013271153 0.019999538
-0.016588943 0.013271153 0.060002308
-0.015021925 -0.015021925 -0.060002308
-0.015021925 -0.015021925 -0.019999538
-0.015021925 -0.015021925 0.019999538
-0.015021925 -0.015021925 0.060002308
-0.015021925 0.015021925 -0.060002308
-0.015021925 0.015021925 -0.019999538
-0.015021925 0.015021925 0.019999538
-0.015021925 0.015021925 0.060002308
-0.013499145 -0.022498574 -0.019999536
-0.013499145 -0.022498574 0
-0.013499145 -0.022498574 0.019999536
-0.013499145 0.022498574 -0.019999536
-0.013499145 0.022498574 0
-0.013499145 0.022498574 0.019999536
-0.013271153 -0.016588943 -0.060002308
-0.013271153 -0.016588943 -0.019999538
-0.013271153 -0.016588943 0.019999538
-0.013271153 -0.016588943 0.060002308
-0.013271153 0.016588943 -0.060002308
-0.013271153 0.016588943 -0.019999538
-0.013271153 0.016588943 0.019999538
-0.013271153 0.016588943 0.060002308
-0.010930056 -0.018216759 -0.060002308
-0.010930056 -0.018216759 -0.019999536
-0.010930056 -0.018216759 0.019999536
-0.010930056 -0.018216759 0.060002308
-0.010930056 0.018216759 -0.060002308
-0.010930056 0.018216759 -0.019999536
-0.010930056 0.018216759 0.019999536
-0.010930056 0.018216759 0.060002308
-0.0089994306 -0.022498574 -0.019999536
-0.0089994306 -0.022498574 0
-0.0089994306 -0.022498574 0.019999536
-0.0089994296 0.022498574 -0.019999536
-0.0089994296 0.022498574 0
-0.0089994296 0.022498574 0.019999536
-0.0078899022 -0.019724755 -0.060002308
-0.0078899022 -0.019724755 -0.019999534
-0.0078899022 -0.019724755 0.019999534
-0.0078899022 -0.019724755 0.060002308
-0.0078899022 0.019724755 -0.060002308
-0.0078899022 0.019724755 -0.019999534
-0.0078899022 0.019724755 0.019999534
-0.0078899022 0.019724755 0.060002308
-0.0044997153 -0.022498574 -0.019999536
-0.0044997153 -0.022498574 0
-0.0044997153 -0.022498574 0.019999536
-0.0044997148 0.022498574 -0.019999536
-0.0044997148 0.022498574 0
-0.0044997148 0.022498574 0.019999536
-0.0041663325 -0.020831661 -0.060002308
-0.0041663325 -0.020831661 -0.019999534
-0.0041663325 -0.020831661 0.019999534
-0.0041663325 -0.020831661 0.060002308
-0.0041663325 0.020831661 -0.060002308
-0.0041663325 0.020831661 -0.019999534
-0.0041663325 0.020831661 0.019999534
-0.0041663325 0.020831661 0.060002308
0 -0.022498574 -0.019999536
0 -0.022498574 0
0 -0.022498574 0.019999536
0 -0.021244207 -0.060002308
0 -0.021244207 -0.019999534
0 -0.021244207 0.019999534
0 -0.021244207 0.060002308
0 0.021244207 -0.060002308
0 0.021244207 -0.019999534
0 0.021244207 0.019999534
0 0.021244207 0.060002308
0 0.022498574 -0.019999536
0 0.022498574 0
0 0.022498574 0.019999536
0.0041663325 -0.020831661 -0.060002308
0.0041663325 -0.020831661 -0.019999534
0.0041663325 -0.020831661 0.019999534
0.0041663325 -0.020831661 0.060002308
0.0041663325 0.020831661 -0.060002308
0.0041663325 0.020831661 -0.019999534
0.0041663325 0.020831661 0.019999534
0.0041663325 0.020831661 0.060002308
0.0044997148 0.022498574 -0.019999536
0.0044997148 0.022498574 0
0.0044997148 0.022498574 0.019999536
0.0044997153 -0.022498574 -0.019999536
0.0044997153 -0.022498574 0
0.0044997153 -0.022498574 0.019999536
0.0078899022 -0.019724755 -0.060002308
0.0078899022 -0.019724755 -0.019999534
0.0078899022 -0.019724755 0.019999534
0.0078899022 -0.019724755 0.060002308
0.0078899022 0.019724755 -0.060002308
0.0078899022 0.019724755 -0.019999534
0.0078899022 0.019724755 0.019999534
0.0078899022 0.019724755 0.060002308
0.0089994296 0.022498574 -0.019999536
0.0089994296 0.022498574 0
0.0089994296 0.022498574 0.019999536
0.0089994306 -0.022498574 -0.019999536
0.0089994306 -0.022498574 0
0.0089994306 -0.022498574 0.019999536
0.010930056 -0.018216759 -0.060002308
0.010930056 -0.018216759 -0.019999536
0.010930056 -0.018216759 0.019999536
0.010930056 -0.018216759 0.060002308
0.010930056 0.018216759 -0.060002308
0.010930056 0.018216759 -0.019999536
0.010930056 0.018216759 0.019999536
0.010930056 0.018216759 0.060002308
0.013271153 -0.016588943 -0.060002308
0.013271153 -0.016588943 -0.019999538
0.013271153 -0.016588943 0.019999538
0.013271153 -0.016588943 0.060002308
0.013271153 0.016588943 -0.060002308
0.013271153 0.016588943 -0.019999538
0.013271153 0.016588943 0.019999538
0.013271153 0.016588943 0.060002308
0.013499145 -0.022498574 -0.019999536
0.013499145 -0.022498574 0
0.013499145 -0.022498574 0.019999536
0.013499145 0.022498574 -0.019999536
0.013499145 0.022498574 0
0.013499145 0.022498574 0.019999536
0.015021925 -0.015021925 -0.060002308
0.015021925 -0.015021925 -0.019999538
0.015021925 -0.015021925 0.019999538
0.015021925 -0.015021925 0.060002308
0.015021925 0.015021925 -0.060002308
0.015021925 0.015021925 -0.019999538
0.015021925 0.015021925 0.019999538
0.015021925 0.015021925 0.060002308
0.016588943 -0.013271153 -0.060002308
0.016588943 -0.013271153 -0.019999538
0.016588943 -0.013271153 0.019999538
0.016588943 -0.013271153 0.060002308
0.016588943 0.013271153 -0.060002308
0.016588943 0.013271153 -0.019999538
0.016588943 0.013271153 0.019999538
0.016588943 0.013271153 0.060002308
0.017998859 -0.022498574 -0.019999536
0.017998859 -0.022498574 0
0.017998859 -0.022498574 0.019999536
0.017998859 0.022498574 -0.019999536
0.017998859 0.022498574 0
0.017998859 0.022498574 0.019999536
0.018216759 -0.010930056 -0.060002308
0.018216759 -0.010930056 -0.019999536
0.018216759 -0.010930056 0.019999536
0.018216759 -0.010930056 0.060002308
0.018216759 0.010930056 -0.060002308
0.018216759 0.010930056 -0.019999536
0.018216759 0.010930056 0.019999536
0.018216759 0.010930056 0.060002308
0.019724755 -0.0078899022 -0.060002308
0.019724755 -0.0078899022 -0.019999534
0.019724755 -0.0078899022 0.019999534
0.019724755 -0.0078899022 0.060002308
0.019724755 0.0078899022 -0.060002308
0.019724755 0.0078899022 -0.019999534
0.019724755 0.0078899022 0.019999534
0.019724755 0.0078899022 0.060002308
0.020831661 -0.0041663325 -0.060002308
0.020831661 -0.0041663325 -0.019999534
0.020831661 -0.0041663325 0.019999534
0.020831661 -0.0041663325 0.060002308
0.020831661 0.0041663325 -0.060002308
0.020831661 0.0041663325 -0.019999534
0.020831661 0.0041663325 0.019999534
0.020831661 0.0041663325 0.060002308
0.021244207 9.3592738e-12 -0.060002308
0.021244207 9.3592738e-12 -0.019999534
0.021244207 9.3592738e-12 0.019999534
0.021244207 9.3592738e-12 0.060002308
0.022498574 -0.022498574 -0.019999536
0.022498574 -0.022498574 0
0.022498574 -0.022498574 0.019999536
0.022498574 -0.017998859 -0.019999536
0.022498574 -0.017998859 0
0.022498574 -0.017998859 0.019999536
0.022498574 -0.013499145 -0.019999536
0.022498574 -0.013499145 0
0.022498574 -0.013499145 0.019999536
0.022498574 -0.0089994296 -0.019999536
0.022498574 -0.0089994296 0
0.022498574 -0.0089994296 0.019999536
0.022498574 -0.0044997148 -0.019999536
0.022498574 -0.0044997148 0
0.022498574 -0.0044997148 0.019999536
0.022498574 0 -0.019999536
0.022498574 0 0
0.022498574 0 0.019999536
0.022498574 0.0044997153 -0.019999536
0.022498574 0.0044997153 0
0.022498574 0.0044997153 0.019999536
0.022498574 0.0089994306 -0.019999536
0.022498574 0.0089994306 0
0.022498574 0.0089994306 0.019999536
0.022498574 0.013499145 -0.019999536
0.022498574 0.013499145 0
0.022498574 0.013499145 0.019999536
0.022498574 0.017998859 -0.019999536
0.022498574 0.017998859 0
0.022498574 0.017998859 0.019999536
0.022498574 0.022498574 -0.019999536
0.022498574 0.022498574 0
0.022498574 0.022498574 0.019999536
3 217 218 279
3 217 279 278
3 251 252 249
3 251 249 248
3 189 203 279
3 189 279 218
3 207 199 249
3 207 249 252
3 203 211 276
3 203 276 279
3 211 225 273
3 211 273 276
3 225 233 270
3 225 270 273
3 233 241 267
3 233 267 270
3 241 245 264
3 241 264 267
3 245 237 261
3 245 261 264
3 237 229 258
3 237 258 261
3 229 221 255
3 229 255 258
3 221 207 252
3 221 252 255
3 278 279 276
3 278 276 275
3 275 276 273
3 275 273 272
3 272 273 270
3 272 270 269
3 269 270 267
3 269 267 266
3 266 267 264
3 266 264 263
3 263 264 261
3 263 261 260
3 260 261 258
3 260 258 257
3 257 258 255
3 257 255 254
3 254 255 252
3 254 252 251
3 199 185 215
3 199 215 249
3 185 177 193
3 185 193 215
3 177 163 174
3 177 174 193
3 163 149 160
3 163 160 174
3 149 138 135
3 149 135 160
3 142 153 157
3 142 157 146
3 153 167 171
3 153 171 157
3 167 181 196
3 167 196 171
3 181 189 218
3 181 218 196
3 248 249 215
3 248 215 214
3 214 215 193
3 214 193 192
3 192 193 174
3 192 174 173
3 173 174 160
3 173 160 159
3 159 160 135
3 159 135 134
3 145 146 157
3 145 157 156
3 156 157 171
3 156 171 170
3 170 171 196
3 170 196 195
3 195 196 218
3 195 218 217
3 167 153 154
3 167 154 168
3 181 167 168
3 181 168 182
3 189 181 182
3 189 182 190
3 211 203 204
3 211 204 212
3 185 199 200
3 185 200 186
3 225 211 212
3 225 212 226
3 177 185 186
3 177 186 178
3 233 225 226
3 233 226 234
3 163 177 178
3 163 178 164
3 241 233 234
3 241 234 242
3 149 163 164
3 149 164 150
3 245 241 242
3 245 242 246
3 138 149 150
3 138 150 139
3 237 245 246
3 237 246 238
3 229 237 238
3 229 238 230
3 221 229 230
3 221 230 222
3 203 189 190
3 203 190 204
3 207 221 222
3 207 222 208
3 199 207 208
3 199 208 200
3 153 142 143
3 153 143 154
3 204 190 182
3 182 168 154
3 154 143 139
3 139 150 164
3 164 178 186
3 186 200 208
3 208 222 230
3 230 238 246
3 246 242 234
3 234 226 212
3 212 204 182
3 182 154 139
3 139 164 186
3 186 208 230
3 230 246 234
3 234 212 182
3 182 139 186
3 186 230 234
3 182 186 234
3 217 278 277
3 217 277 216
3 251 248 247
3 251 247 250
3 188 216 277
3 188 277 202
3 206 250 247
3 206 247 198
3 202 277 274
3 202 274 210
3 210 274 271
3 210 271 224
3 224 271 268
3 224 268 232
3 232 268 265
3 232 265 240
3 240 265 262
3 240 262 244
3 244 262 259
3 244 259 236
3 236 259 256
3 236 256 228
3 228 256 253
3 228 253 220
3 220 253 250
3 220 250 206
3 278 275 274
3 278 274 277
3 275 272 271
3 275 271 274
3 272 269 268
3 272 268 271
3 269 266 265
3 269 265 268
3 266 263 262
3 266 262 265
3 263 260 259
3 263 259 262
3 260 257 256
3 260 256 259
3 257 254 253
3 257 253 256
3 254 251 250
3 254 250 253
3 198 247 213
3 198 213 184
3 184 213 191
3 184 191 176
3 176 191 172
3 176 172 162
3 162 172 158
3 162 158 148
3 148 158 133
3 148 133 137
3 141 144 155
3 141 155 152
3 152 155 169
3 152 169 166
3 166 169 194
3 166 194 180
3 180 194 216
3 180 216 188
3 248 214 213
3 248 213 247
3 214 192 191
3 214 191 213
3 192 173 172
3 192 172 191
3 173 159 158
3 173 158 172
3 159 134 133
3 159 133 158
3 145 156 155
3 145 155 144
3 156 170 169
3 156 169 155
3 170 195 194
3 170 194 169
3 195 217 216
3 195 216 194
3 166 165 151
3 166 151 152
3 180 179 165
3 180 165 166
3 188 187 179
3 188 179 180
3 210 209 201
3 210 201 202
3 184 183 197
3 184 197 198
3 224 223 209
3 224 209 210
3 176 175 183
3 176 183 184
3 232 231 223
3 232 223 224
3 162 161 175
3 162 175 176
3 240 239 231
3 240 231 232
3 148 147 161
3 148 161 162
3 244 243 239
3 244 239 240
3 137 136 147
3 137 147 148
3 236 235 243
3 236 243 244
3 228 227 235
3 228 235 236
3 220 219 227
3 220 227 228
3 202 201 187
3 202 187 188
3 206 205 219
3 206 219 220
3 198 197 205
3 198 205 206
3 152 151 140
3 152 140 141
3 179 187 201
3 201 209 223
3 223 231 239
3 239 243 235
3 235 227 219
3 219 205 197
3 197 183 175
3 175 161 147
3 147 136 140
3 140 151 165
3 165 179 201
3 201 223 239
3 239 235 219
3 219 197 175
3 175 147 140
3 140 165 201
3 201 239 219
3 219 175 140
3 201 219 140
3 65 32 66
3 65 31 32
3 4 2 5
3 4 1 2
3 95 32 81
3 95 66 32
3 69 2 77
3 69 5 2
3 81 29 73
3 81 32 29
3 73 26 59
3 73 29 26
3 59 23 51
3 59 26 23
3 51 20 43
3 51 23 20
3 43 17 35
3 43 20 17
3 35 14 39
3 35 17 14
3 39 11 47
3 39 14 11
3 47 8 55
3 47 11 8
3 55 5 69
3 55 8 5
3 31 29 32
3 31 28 29
3 28 26 29
3 28 25 26
3 25 23 26
3 25 22 23
3 22 20 23
3 22 19 20
3 19 17 20
3 19 16 17
3 16 14 17
3 16 13 14
3 13 11 14
3 13 10 11
3 10 8 11
3 10 7 8
3 7 5 8
3 7 4 5
3 77 63 91
3 77 2 63
3 91 85 99
3 91 63 85
3 99 107 113
3 99 85 107
3 113 121 127
3 113 107 121
3 127 135 138
3 127 121 135
3 142 124 131
3 142 146 124
3 131 110 117
3 131 124 110
3 117 88 103
3 117 110 88
3 103 66 95
3 103 88 66
3 1 63 2
3 1 62 63
3 62 85 63
3 62 84 85
3 84 107 85
3 84 106 107
3 106 121 107
3 106 120 121
3 120 135 121
3 120 134 135
3 145 124 146
3 145 123 124
3 123 110 124
3 123 109 110
3 109 88 110
3 109 87 88
3 87 66 88
3 87 65 66
3 117 132 131
3 117 118 132
3 103 118 117
3 103 104 118
3 95 104 103
3 95 96 104
3 73 82 81
3 73 74 82
3 91 78 77
3 91 92 78
3 59 74 73
3 59 60 74
3 99 92 91
3 99 100 92
3 51 60 59
3 51 52 60
3 113 100 99
3 113 114 100
3 43 52 51
3 43 44 52
3 127 114 113
3 127 128 114
3 35 44 43
3 35 36 44
3 138 128 127
3 138 139 128
3 39 36 35
3 39 40 36
3 47 40 39
3 47 48 40
3 55 48 47
3 55 56 48
3 81 96 95
3 81 82 96
3 69 56 55
3 69 70 56
3 77 70 69
3 77 78 70
3 131 143 142
3 131 132 143
3 82 104 96
3 104 132 118
3 132 139 143
3 139 114 128
3 114 92 100
3 92 70 78
3 70 48 56
3 48 36 40
3 36 52 44
3 52 74 60
3 74 104 82
3 104 139 132
3 139 92 114
3 92 48 70
3 48 52 36
3 52 104 74
3 104 92 139
3 92 52 48
3 104 52 92
3 65 30 31
3 65 64 30
3 4 0 1
3 4 3 0
3 94 30 64
3 94 80 30
3 68 0 3
3 68 76 0
3 80 27 30
3 80 72 27
3 72 24 27
3 72 58 24
3 58 21 24
3 58 50 21
3 50 18 21
3 50 42 18
3 42 15 18
3 42 34 15
3 34 12 15
3 34 38 12
3 38 9 12
3 38 46 9
3 46 6 9
3 46 54 6
3 54 3 6
3 54 68 3
3 31 27 28
3 31 30 27
3 28 24 25
3 28 27 24
3 25 21 22
3 25 24 21
3 22 18 19
3 22 21 18
3 19 15 16
3 19 18 15
3 16 12 13
3 16 15 12
3 13 9 10
3 13 12 9
3 10 6 7
3 10 9 6
3 7 3 4
3 7 6 3
3 76 61 0
3 76 90 61
3 90 83 61
3 90 98 83
3 98 105 83
3 98 112 105
3 112 119 105
3 112 126 119
3 126 133 119
3 126 137 133
3 141 122 144
3 141 130 122
3 130 108 122
3 130 116 108
3 116 86 108
3 116 102 86
3 102 64 86
3 102 94 64
3 1 61 62
3 1 0 61
3 62 83 84
3 62 61 83
3 84 105 106
3 84 83 105
3 106 119 120
3 106 105 119
3 120 133 134
3 120 119 133
3 145 122 123
3 145 144 122
3 123 108 109
3 123 122 108
3 109 86 87
3 109 108 86
3 87 64 65
3 87 86 64
3 116 129 115
3 116 130 129
3 102 115 101
3 102 116 115
3 94 101 93
3 94 102 101
3 72 79 71
3 72 80 79
3 90 75 89
3 90 76 75
3 58 71 57
3 58 72 71
3 98 89 97
3 98 90 89
3 50 57 49
3 50 58 57
3 112 97 111
3 112 98 97
3 42 49 41
3 42 50 49
3 126 111 125
3 126 112 111
3 34 41 33
3 34 42 41
3 137 125 136
3 137 126 125
3 38 33 37
3 38 34 33
3 46 37 45
3 46 38 37
3 54 45 53
3 54 46 45
3 80 93 79
3 80 94 93
3 68 53 67
3 68 54 53
3 76 67 75
3 76 68 67
3 130 140 129
3 130 141 140
3 101 79 93
3 79 57 71
3 57 41 49
3 41 37 33
3 37 53 45
3 53 75 67
3 75 97 89
3 97 125 111
3 125 140 136
3 140 115 129
3 115 79 101
3 79 41 57
3 41 53 37
3 53 97 75
3 97 140 125
3 140 79 115
3 79 53 41
3 53 140 97
3 79 140 53
