ply
format ascii 1.0
comment Exported from Blender-2.82 (sub 7)
element vertex 412
property float x
property float y
property float z
element face 625
property list uchar int vertex_indices
end_header
-0.0048529832 0.19485281 0
-0.0048529832 0.19485281 0.039999999
-0.00025919708 0.20101772 0
-0.00025919708 0.20101772 0.039999999
0 0 0
0 0 0.039999999
0 0.035 0.039999999
2.1431319e-18 0.035 0
0.004638698 0.20694391 0
0.004638698 0.20694391 0.039999999
0.009828316 0.21261638 0
0.009828316 0.21261638 0.039999999
0.015296534 0.2180208 0
0.015296534 0.2180208 0.039999999
0.016544957 0.19684574 0
0.016544957 0.19684574 0.039999999
0.016735788 0.19442101 0
0.016735788 0.19442101 0.039999999
0.016735788 0.19927049 0
0.016735788 0.19927049 0.039999999
0.017303582 0.19205599 0
0.017303582 0.19205599 0.039999999
0.017303582 0.20163551 0
0.017303582 0.20163551 0.039999999
0.018234357 0.18980889 0
0.018234357 0.18980889 0.039999999
0.018234357 0.2038826 0
0.018234357 0.2038826 0.039999999
0.019505193 0.18773508 0
0.019505193 0.18773508 0.039999999
0.019505193 0.20595641 0
0.019505193 0.20595641 0.039999999
0.021029523 0.22314347 0
0.021029523 0.22314347 0.039999999
0.021084802 0.18588559 0
0.021084802 0.18588559 0.039999999
0.021084802 0.2078059 0
0.021084802 0.2078059 0.039999999
0.022934286 0.18430598 0
0.022934286 0.18430598 0.039999999
0.022934286 0.20938551 0
0.022934286 0.20938551 0.039999999
0.025008105 0.18303515 0
0.025008105 0.18303515 0.039999999
0.025008105 0.21065634 0
0.025008105 0.21065634 0.039999999
0.027012786 0.22797148 0
0.027012786 0.22797148 0.039999999
0.027255194 0.18210436 0
0.027255194 0.18210436 0.039999999
0.027255194 0.21158712 0
0.027255194 0.21158712 0.039999999
0.029620223 0.18153659 0
0.029620223 0.18153659 0.039999999
0.029620223 0.21215491 0
0.029620223 0.21215491 0.039999999
0.032044958 0.18134575 0
0.032044958 0.18134575 0.039999999
0.032044958 0.21234575 0
0.032044958 0.21234575 0.039999999
0.033231191 0.23249258 0
0.033231191 0.23249258 0.039999999
0.03446969 0.18153659 0
0.03446969 0.18153659 0.039999999
0.03446969 0.21215491 0
0.03446969 0.21215491 0.039999999
0.034999829 0.07 0
0.034999829 0.07 0.039999999
0.036834721 0.18210436 0
0.036834721 0.18210436 0.039999999
0.036834721 0.21158712 0
0.036834721 0.21158712 0.039999999
0.039081812 0.18303515 0
0.039081812 0.18303515 0.039999999
0.039081812 0.21065634 0
0.039081812 0.21065634 0.039999999
0.039669018 0.23669538 0
0.039669018 0.23669538 0.039999999
0.041155629 0.18430598 0
0.041155629 0.18430598 0.039999999
0.041155629 0.20938551 0
0.041155629 0.20938551 0.039999999
0.043005113 0.18588559 0
0.043005113 0.18588559 0.039999999
0.043005113 0.2078059 0
0.043005113 0.2078059 0.039999999
0.044584721 0.18773508 0
0.044584721 0.18773508 0.039999999
0.044584721 0.20595641 0
0.044584721 0.20595641 0.039999999
0.045855559 0.18980889 0
0.045855559 0.18980889 0.039999999
0.045855559 0.2038826 0
0.045855559 0.2038826 0.039999999
0.046309985 0.24056922 0
0.046309985 0.24056922 0.039999999
0.046786334 0.19205599 0
0.046786334 0.19205599 0.039999999
0.046786334 0.20163551 0
0.046786334 0.20163551 0.039999999
0.047354128 0.19442101 0
0.047354128 0.19442101 0.039999999
0.047354128 0.19927049 0
0.047354128 0.19927049 0.039999999
0.047544956 0.19684574 0
0.047544956 0.19684574 0.039999999
0.050250001 0.018999662 0
0.050250001 0.018999662 0.039999999
0.050250001 0.050999664 0
0.050250001 0.050999664 0.039999999
0.053137295 0.2441043 0
0.053137295 0.2441043 0.039999999
0.060133684 0.24729171 0
0.060133684 0.24729171 0.039999999
0.065527275 0.19497272 0
0.065527275 0.19497272 0.039999999
0.067281462 0.25012335 0
0.067281462 0.25012335 0.039999999
0.071109712 0.19796675 0
0.071109712 0.19796675 0.039999999
0.074562557 0.25259212 0
0.074562557 0.25259212 0.039999999
0.076856099 0.20063265 0
0.076856099 0.20063265 0.039999999
0.079999827 0.07 0
0.079999827 0.07 0.039999999
0.079999827 0.11 0
0.079999827 0.11 0.039999999
0.081958547 0.25469172 0
0.081958547 0.25469172 0.039999999
0.082249999 0.018999662 0
0.082249999 0.018999662 0.039999999
0.082249999 0.050999664 0
0.082249999 0.050999664 0.039999999
0.082747154 0.20296143 0
0.082747154 0.20296143 0.039999999
0.08876314 0.20494533 0
0.08876314 0.20494533 0.039999999
0.089450739 0.25641686 0
0.089450739 0.25641686 0.039999999
0.094883867 0.20657764 0
0.094883867 0.20657764 0.039999999
0.097020179 0.25776318 0
0.097020179 0.25776318 0.039999999
0.098499998 0.11 0
0.098499998 0.11 0.039999999
0.098691836 0.10713433 0
0.098691836 0.10713433 0.039999999
0.098691836 0.11286567 0
0.098691836 0.11286567 0.039999999
0.099263914 0.1043198 0
0.099263914 0.1043198 0.039999999
0.099263914 0.1156802 0
0.099263914 0.1156802 0.039999999
0.10020602 0.10160663 0
0.10020602 0.10160663 0.039999999
0.10020602 0.11839337 0
0.10020602 0.11839337 0.039999999
0.10108882 0.20785296 0
0.10108882 0.20785296 0.039999999
0.10150137 0.099043243 0
0.10150137 0.099043243 0.039999999
0.10150137 0.12095676 0
0.10150137 0.12095676 0.039999999
0.10312682 0.096675381 0
0.10312682 0.096675381 0.039999999
0.10312682 0.12332463 0
0.10312682 0.12332463 0.039999999
0.10464773 0.25872728 0
0.10464773 0.25872728 0.039999999
0.105 0.15549999 0
0.105 0.15549999 0.039999999
0.10505337 0.09454529 0
0.10505337 0.09454529 0.039999999
0.10505337 0.12545471 0
0.10505337 0.12545471 0.039999999
0.10724664 0.092690997 0
0.10724664 0.092690997 0.039999999
0.10724664 0.12730901 0
0.10724664 0.12730901 0.039999999
0.10735719 0.20876695 0
0.10735719 0.20876695 0.039999999
0.10966749 0.091145575 0
0.10966749 0.091145575 0.039999999
0.10966749 0.12885442 0
0.10966749 0.12885442 0.039999999
0.11227273 0.089936621 0
0.11227273 0.089936621 0.039999999
0.11227273 0.13006338 0
0.11227273 0.13006338 0.039999999
0.11231411 0.2593067 0
0.11231411 0.2593067 0.039999999
0.11366795 0.20931658 0
0.11366795 0.20931658 0.039999999
0.11501586 0.089085691 0
0.11501586 0.089085691 0.039999999
0.11501586 0.13091432 0
0.11501586 0.13091432 0.039999999
0.11784794 0.088607982 0
0.11784794 0.088607982 0.039999999
0.11784794 0.13139202 0
0.11784794 0.13139202 0.039999999
0.11999992 0.2595 0
0.11999992 0.2595 0.039999999
0.11999995 0.2095 0
0.11999995 0.2095 0.039999999
0.12 0.2095 0
0.12 0.2095 0.039999999
0.12071842 0.088512011 0
0.12071842 0.088512011 0.039999999
0.12071842 0.131488 0
0.12071842 0.131488 0.039999999
0.12357608 0.088799492 0
0.12357608 0.088799492 0.039999999
0.12357608 0.13120051 0
0.12357608 0.13120051 0.039999999
0.126332 0.20931658 0
0.126332 0.20931658 0.039999999
0.12636992 0.089465298 0
0.12636992 0.089465298 0.039999999
0.12636992 0.13053471 0
0.12636992 0.13053471 0.039999999
0.12768573 0.25930667 0
0.12768573 0.25930667 0.039999999
0.12905011 0.090497546 0
0.12905011 0.090497546 0.039999999
0.12905011 0.12950246 0
0.12905011 0.12950246 0.039999999
0.13156877 0.091877818 0
0.13156877 0.091877818 0.039999999
0.13156877 0.12812218 0
0.13156877 0.12812218 0.039999999
0.13264278 0.20876695 0
0.13264278 0.20876695 0.039999999
0.133881 0.093581475 0
0.133881 0.093581475 0.039999999
0.133881 0.12641852 0
0.133881 0.12641852 0.039999999
0.13500001 0.15549999 0
0.13500001 0.15549999 0.039999999
0.1353521 0.25872722 0
0.1353521 0.25872722 0.039999999
0.13594553 0.095578127 0
0.13594553 0.095578127 0.039999999
0.13594553 0.12442187 0
0.13594553 0.12442187 0.039999999
0.13772549 0.097832136 0
0.13772549 0.097832136 0.039999999
0.13772549 0.12216786 0
0.13772549 0.12216786 0.039999999
0.13891116 0.20785296 0
0.13891116 0.20785296 0.039999999
0.13918915 0.10030328 0
0.13918915 0.10030328 0.039999999
0.13918915 0.11969672 0
0.13918915 0.11969672 0.039999999
0.14031039 0.10294747 0
0.14031039 0.10294747 0.039999999
0.14031039 0.11705253 0
0.14031039 0.11705253 0.039999999
0.14106917 0.1057175 0
0.14106917 0.1057175 0.039999999
0.14106917 0.1142825 0
0.14106917 0.1142825 0.039999999
0.14145198 0.10856396 0
0.14145198 0.10856396 0.039999999
0.14145198 0.11143604 0
0.14145198 0.11143604 0.039999999
0.14297965 0.25776312 0
0.14297965 0.25776312 0.039999999
0.14511611 0.20657766 0
0.14511611 0.20657766 0.039999999
0.15054908 0.25641677 0
0.15054908 0.25641677 0.039999999
0.15123685 0.20494533 0
0.15123685 0.20494533 0.039999999
0.15725283 0.20296143 0
0.15725283 0.20296143 0.039999999
0.15775 0.01899966 0
0.15775 0.01899966 0.039999999
0.15775 0.05099966 0
0.15775 0.05099966 0.039999999
0.15804128 0.2546916 0
0.15804128 0.2546916 0.039999999
0.15999983 0.069999665 0
0.15999983 0.069999665 0.039999999
0.15999983 0.10999966 0
0.15999983 0.10999966 0.039999999
0.1631439 0.20063265 0
0.1631439 0.20063265 0.039999999
0.16543727 0.252592 0
0.16543727 0.252592 0.039999999
0.16889028 0.19796677 0
0.16889028 0.19796677 0.039999999
0.17271835 0.25012323 0
0.17271835 0.25012323 0.039999999
0.17447273 0.19497272 0
0.17447273 0.19497272 0.039999999
0.17986612 0.24729155 0
0.17986612 0.24729155 0.039999999
0.1868625 0.24410412 0
0.1868625 0.24410412 0.039999999
0.18975 0.01899966 0
0.18975 0.01899966 0.039999999
0.18975 0.05099966 0
0.18975 0.05099966 0.039999999
0.19245496 0.19684586 0
0.19245496 0.19684586 0.039999999
0.19264579 0.19442113 0
0.19264579 0.19442113 0.039999999
0.19264579 0.19927059 0
0.19264579 0.19927059 0.039999999
0.19321358 0.19205609 0
0.19321358 0.19205609 0.039999999
0.19321358 0.20163563 0
0.19321358 0.20163563 0.039999999
0.19368981 0.24056901 0
0.19368981 0.24056901 0.039999999
0.19414435 0.18980901 0
0.19414435 0.18980901 0.039999999
0.19414435 0.20388271 0
0.19414435 0.20388271 0.039999999
0.1954152 0.18773519 0
0.1954152 0.18773519 0.039999999
0.1954152 0.20595653 0
0.1954152 0.20595653 0.039999999
0.19699481 0.1858857 0
0.19699481 0.1858857 0.039999999
0.19699481 0.20780602 0
0.19699481 0.20780602 0.039999999
0.19884428 0.1843061 0
0.19884428 0.1843061 0.039999999
0.19884428 0.20938562 0
0.19884428 0.20938562 0.039999999
0.20033076 0.23669516 0
0.20033076 0.23669516 0.039999999
0.20091811 0.18303525 0
0.20091811 0.18303525 0.039999999
0.20091811 0.21065646 0
0.20091811 0.21065646 0.039999999
0.2031652 0.18210448 0
0.2031652 0.18210448 0.039999999
0.2031652 0.21158724 0
0.2031652 0.21158724 0.039999999
0.20499983 0.069999658 0
0.20499983 0.069999658 0.039999999
0.20553023 0.18153669 0
0.20553023 0.18153669 0.039999999
0.20553023 0.21215503 0
0.20553023 0.21215503 0.039999999
0.20676857 0.23249234 0
0.20676857 0.23249234 0.039999999
0.20795496 0.18134587 0
0.20795496 0.18134587 0.039999999
0.20795496 0.21234585 0
0.20795496 0.21234585 0.039999999
0.21037969 0.18153669 0
0.21037969 0.18153669 0.039999999
0.21037969 0.21215503 0
0.21037969 0.21215503 0.039999999
0.21274473 0.18210448 0
0.21274473 0.18210448 0.039999999
0.21274473 0.21158724 0
0.21274473 0.21158724 0.039999999
0.21298696 0.22797123 0
0.21298696 0.22797123 0.039999999
0.21499181 0.18303525 0
0.21499181 0.18303525 0.039999999
0.21499181 0.21065646 0
0.21499181 0.21065646 0.039999999
0.21706563 0.1843061 0
0.21706563 0.1843061 0.039999999
0.21706563 0.20938562 0
0.21706563 0.20938562 0.039999999
0.21891512 0.1858857 0
0.21891512 0.1858857 0.039999999
0.21891512 0.20780602 0
0.21891512 0.20780602 0.039999999
0.21897022 0.22314321 0
0.21897022 0.22314321 0.039999999
0.22049473 0.18773519 0
0.22049473 0.18773519 0.039999999
0.22049473 0.20595653 0
0.22049473 0.20595653 0.039999999
0.22176556 0.18980901 0
0.22176556 0.18980901 0.039999999
0.22176556 0.20388271 0
0.22176556 0.20388271 0.039999999
0.22269633 0.19205609 0
0.22269633 0.19205609 0.039999999
0.22269633 0.20163563 0
0.22269633 0.20163563 0.039999999
0.22326413 0.19442113 0
0.22326413 0.19442113 0.039999999
0.22326413 0.19927059 0
0.22326413 0.19927059 0.039999999
0.22345497 0.19684586 0
0.22345497 0.19684586 0.039999999
0.22470319 0.2180205 0
0.22470319 0.2180205 0.039999999
0.2301714 0.21261609 0
0.2301714 0.21261609 0.039999999
0.23536099 0.2069436 0
0.23536099 0.2069436 0.039999999
0.23999999 0 0
0.23999999 0 0.039999999
0.23999999 0.035 0
0.23999999 0.035 0.039999999
0.24025887 0.20101739 0
0.24025887 0.20101739 0.039999999
0.24485265 0.19485247 0
0.24485265 0.19485247 0.039999999
3 17 16 15
3 15 16 14
3 15 14 19
3 19 14 18
3 19 18 22
3 17 21 16
3 16 21 20
3 20 21 25
3 20 25 24
3 24 25 29
3 24 29 28
3 28 29 35
3 28 35 34
3 34 35 39
3 34 39 38
3 38 39 43
3 38 43 42
3 42 43 49
3 42 49 48
3 48 49 53
3 48 53 52
3 52 53 57
3 52 57 56
3 56 57 63
3 56 63 62
3 62 63 69
3 62 69 68
3 68 69 73
3 68 73 72
3 72 73 79
3 72 79 78
3 78 79 83
3 78 83 82
3 82 83 87
3 82 87 86
3 86 87 91
3 86 91 90
3 90 91 97
3 90 97 96
3 96 97 101
3 96 101 100
3 100 101 105
3 100 105 104
3 104 105 103
3 104 103 102
3 102 103 99
3 102 99 98
3 98 99 93
3 98 93 92
3 92 93 89
3 92 89 88
3 88 89 85
3 88 85 84
3 84 85 81
3 84 81 80
3 80 81 75
3 80 75 74
3 74 75 71
3 74 71 70
3 70 71 65
3 70 65 64
3 64 65 59
3 64 59 58
3 58 59 55
3 58 55 54
3 54 55 51
3 54 51 50
3 50 51 45
3 50 45 44
3 44 45 41
3 44 41 40
3 40 41 37
3 40 37 36
3 36 37 31
3 36 31 30
3 30 31 27
3 30 27 26
3 26 27 23
3 26 23 22
3 22 23 19
3 108 132 109
3 109 132 133
3 106 108 107
3 107 108 109
3 130 106 131
3 131 106 107
3 132 130 133
3 133 130 131
3 147 146 145
3 145 146 144
3 145 144 149
3 149 144 148
3 149 148 152
3 147 151 146
3 146 151 150
3 150 151 155
3 150 155 154
3 154 155 161
3 154 161 160
3 160 161 165
3 160 165 164
3 164 165 173
3 164 173 172
3 172 173 177
3 172 177 176
3 176 177 183
3 176 183 182
3 182 183 187
3 182 187 186
3 186 187 195
3 186 195 194
3 194 195 199
3 194 199 198
3 198 199 209
3 198 209 208
3 208 209 213
3 208 213 212
3 212 213 219
3 212 219 218
3 218 219 225
3 218 225 224
3 224 225 229
3 224 229 228
3 228 229 235
3 228 235 234
3 234 235 243
3 234 243 242
3 242 243 247
3 242 247 246
3 246 247 253
3 246 253 252
3 252 253 257
3 252 257 256
3 256 257 261
3 256 261 260
3 260 261 265
3 260 265 264
3 264 265 267
3 264 267 266
3 266 267 263
3 266 263 262
3 262 263 259
3 262 259 258
3 258 259 255
3 258 255 254
3 254 255 249
3 254 249 248
3 248 249 245
3 248 245 244
3 244 245 237
3 244 237 236
3 236 237 231
3 236 231 230
3 230 231 227
3 230 227 226
3 226 227 221
3 226 221 220
3 220 221 215
3 220 215 214
3 214 215 211
3 214 211 210
3 210 211 201
3 210 201 200
3 200 201 197
3 200 197 196
3 196 197 189
3 196 189 188
3 188 189 185
3 188 185 184
3 184 185 179
3 184 179 178
3 178 179 175
3 178 175 174
3 174 175 167
3 174 167 166
3 166 167 163
3 166 163 162
3 162 163 157
3 162 157 156
3 156 157 153
3 156 153 152
3 152 153 149
3 280 304 281
3 281 304 305
3 278 280 279
3 279 280 281
3 302 278 303
3 303 278 279
3 304 302 305
3 305 302 303
3 309 308 307
3 307 308 306
3 307 306 311
3 311 306 310
3 311 310 314
3 309 313 308
3 308 313 312
3 312 313 319
3 312 319 318
3 318 319 323
3 318 323 322
3 322 323 327
3 322 327 326
3 326 327 331
3 326 331 330
3 330 331 337
3 330 337 336
3 336 337 341
3 336 341 340
3 340 341 347
3 340 347 346
3 346 347 353
3 346 353 352
3 352 353 357
3 352 357 356
3 356 357 361
3 356 361 360
3 360 361 367
3 360 367 366
3 366 367 371
3 366 371 370
3 370 371 375
3 370 375 374
3 374 375 381
3 374 381 380
3 380 381 385
3 380 385 384
3 384 385 389
3 384 389 388
3 388 389 393
3 388 393 392
3 392 393 397
3 392 397 396
3 396 397 395
3 396 395 394
3 394 395 391
3 394 391 390
3 390 391 387
3 390 387 386
3 386 387 383
3 386 383 382
3 382 383 377
3 382 377 376
3 376 377 373
3 376 373 372
3 372 373 369
3 372 369 368
3 368 369 363
3 368 363 362
3 362 363 359
3 362 359 358
3 358 359 355
3 358 355 354
3 354 355 349
3 354 349 348
3 348 349 343
3 348 343 342
3 342 343 339
3 342 339 338
3 338 339 333
3 338 333 332
3 332 333 329
3 332 329 328
3 328 329 325
3 328 325 324
3 324 325 321
3 324 321 320
3 320 321 315
3 320 315 314
3 314 315 311
3 406 344 407
3 407 344 345
3 404 406 405
3 405 406 407
3 4 404 5
3 5 404 405
3 7 4 6
3 6 4 5
3 66 7 67
3 67 7 6
3 124 66 125
3 125 66 67
3 126 124 127
3 127 124 125
3 0 126 1
3 1 126 127
3 203 202 191
3 191 202 190
3 191 190 169
3 169 190 168
3 169 168 143
3 143 168 142
3 143 142 139
3 139 142 138
3 139 138 129
3 129 138 128
3 129 128 121
3 121 128 120
3 121 120 117
3 117 120 116
3 117 116 113
3 113 116 112
3 113 112 111
3 111 112 110
3 111 110 95
3 95 110 94
3 95 94 77
3 77 94 76
3 77 76 61
3 61 76 60
3 61 60 47
3 47 60 46
3 47 46 33
3 33 46 32
3 33 32 13
3 13 32 12
3 13 12 11
3 11 12 10
3 11 10 9
3 9 10 8
3 9 8 3
3 3 8 2
3 3 2 1
3 1 2 0
3 115 114 119
3 119 114 118
3 119 118 123
3 123 118 122
3 123 122 135
3 135 122 134
3 135 134 137
3 137 134 136
3 137 136 141
3 141 136 140
3 141 140 159
3 159 140 158
3 159 158 181
3 181 158 180
3 181 180 193
3 193 180 192
3 193 192 205
3 205 192 204
3 170 114 171
3 171 114 115
3 238 170 239
3 239 170 171
3 296 238 297
3 297 238 239
3 207 206 217
3 217 206 216
3 217 216 233
3 233 216 232
3 233 232 251
3 251 232 250
3 251 250 271
3 271 250 270
3 271 270 275
3 275 270 274
3 275 274 277
3 277 274 276
3 277 276 289
3 289 276 288
3 289 288 293
3 293 288 292
3 293 292 297
3 297 292 296
3 411 410 409
3 409 410 408
3 409 408 403
3 403 408 402
3 403 402 401
3 401 402 400
3 401 400 399
3 399 400 398
3 399 398 379
3 379 398 378
3 379 378 365
3 365 378 364
3 365 364 351
3 351 364 350
3 351 350 335
3 335 350 334
3 335 334 317
3 317 334 316
3 317 316 301
3 301 316 300
3 301 300 299
3 299 300 298
3 299 298 295
3 295 298 294
3 295 294 291
3 291 294 290
3 291 290 283
3 283 290 282
3 283 282 273
3 273 282 272
3 273 272 269
3 269 272 268
3 269 268 241
3 241 268 240
3 241 240 223
3 223 240 222
3 223 222 203
3 203 222 202
3 286 410 287
3 287 410 411
3 284 286 285
3 285 286 287
3 344 284 345
3 345 284 285
3 309 307 297
3 297 307 311
3 297 311 315
3 315 321 297
3 297 321 293
3 293 321 325
3 293 325 301
3 301 325 329
3 301 329 317
3 317 329 333
3 317 333 335
3 335 333 339
3 335 339 351
3 351 339 343
3 351 343 349
3 351 349 365
3 365 349 355
3 365 355 359
3 365 359 379
3 379 359 363
3 379 363 369
3 379 369 399
3 399 369 373
3 399 373 377
3 399 377 401
3 401 377 383
3 401 383 387
3 401 387 403
3 403 387 391
3 403 391 395
3 403 395 409
3 409 395 397
3 409 397 393
3 409 393 411
3 411 393 389
3 411 389 385
3 385 381 411
3 411 381 375
3 411 375 371
3 371 367 411
3 411 367 287
3 287 367 361
3 287 361 357
3 357 353 287
3 287 353 347
3 287 347 341
3 341 337 287
3 287 337 331
3 287 331 239
3 239 331 327
3 239 327 297
3 297 327 323
3 297 323 319
3 319 313 297
3 297 313 309
3 303 407 305
3 305 407 345
3 305 345 285
3 407 303 405
3 405 303 279
3 405 279 5
3 5 279 131
3 5 131 107
3 279 281 131
3 131 281 133
3 133 281 209
3 133 209 199
3 305 285 281
3 281 285 219
3 281 219 213
3 147 145 127
3 127 145 149
3 127 149 153
3 153 157 127
3 127 157 163
3 127 163 167
3 127 167 171
3 171 167 175
3 171 175 179
3 179 185 171
3 171 185 189
3 171 189 197
3 197 201 171
3 171 201 211
3 171 211 239
3 239 211 215
3 239 215 221
3 221 227 239
3 239 227 231
3 239 231 237
3 237 245 239
3 239 245 249
3 239 249 287
3 287 249 255
3 287 255 259
3 259 263 287
3 287 263 267
3 287 267 265
3 265 261 287
3 287 261 257
3 287 257 253
3 287 253 285
3 285 253 247
3 285 247 243
3 243 235 285
3 285 235 229
3 285 229 225
3 225 219 285
3 213 209 281
3 199 195 133
3 133 195 187
3 133 187 125
3 125 187 183
3 125 183 177
3 177 173 125
3 125 173 165
3 125 165 161
3 125 161 127
3 127 161 155
3 127 155 151
3 151 147 127
3 5 107 6
3 6 107 109
3 6 109 67
3 67 109 125
3 125 109 133
3 17 15 3
3 3 15 19
3 3 19 9
3 9 19 23
3 9 23 27
3 9 27 11
3 11 27 31
3 11 31 37
3 11 37 13
3 13 37 41
3 13 41 45
3 13 45 33
3 33 45 51
3 33 51 55
3 33 55 47
3 47 55 59
3 47 59 65
3 47 65 61
3 61 65 71
3 61 71 75
3 61 75 77
3 77 75 81
3 77 81 95
3 95 81 85
3 95 85 111
3 111 85 89
3 111 89 119
3 119 89 93
3 119 93 115
3 115 93 99
3 115 99 103
3 103 105 115
3 115 105 101
3 115 101 97
3 97 91 115
3 115 91 87
3 115 87 83
3 115 83 171
3 171 83 79
3 171 79 127
3 127 79 73
3 127 73 69
3 69 63 127
3 127 63 57
3 127 57 53
3 53 49 127
3 127 49 43
3 127 43 1
3 1 43 39
3 1 39 35
3 35 29 1
3 1 29 25
3 1 25 21
3 21 17 1
3 1 17 3
3 293 301 289
3 289 301 299
3 289 299 277
3 277 299 295
3 277 295 291
3 277 291 275
3 275 291 283
3 275 283 271
3 271 283 273
3 271 273 251
3 251 273 269
3 251 269 233
3 233 269 241
3 233 241 217
3 217 241 223
3 217 223 207
3 207 223 203
3 119 123 111
3 111 123 113
3 113 123 135
3 113 135 117
3 117 135 121
3 121 135 137
3 121 137 129
3 129 137 141
3 129 141 139
3 139 141 159
3 139 159 143
3 143 159 181
3 143 181 169
3 169 181 193
3 169 193 191
3 191 193 205
3 191 205 203
