ply
format ascii 1.0
comment Exported from Blender-2.82 (sub 7)
element vertex 28
property float x
property float y
property float z
element face 52
property list uchar int vertex_indices
end_header
-0.02 -0.02 -0.02
-0.02 -0.02 0
-0.02 -0.02 0.02
-0.02 0.02 -0.02
-0.02 0.02 0
-0.02 0.02 0.02
-0.015 -0.015 -0.059999999
-0.015 -0.015 -0.02
-0.015 -0.015 0.02
-0.015 -0.015 0.059999999
-0.015 0.015 -0.059999999
-0.015 0.015 -0.02
-0.015 0.015 0.02
-0.015 0.015 0.059999999
0.015 -0.015 -0.059999999
0.015 -0.015 -0.02
0.015 -0.015 0.02
0.015 -0.015 0.059999999
0.015 0.015 -0.059999999
0.015 0.015 -0.02
0.015 0.015 0.02
0.015 0.015 0.059999999
0.02 -0.02 -0.02
0.02 -0.02 0
0.02 -0.02 0.02
0.02 0.02 -0.02
0.02 0.02 0
0.02 0.02 0.02
3 8 16 9
3 9 16 17
3 12 8 13
3 13 8 9
3 20 12 21
3 21 12 13
3 16 20 17
3 17 20 21
3 21 13 17
3 17 13 9
3 1 23 2
3 2 23 24
3 4 1 5
3 5 1 2
3 26 4 27
3 27 4 5
3 23 26 24
3 24 26 27
3 20 16 24
3 24 16 8
3 24 8 2
3 2 8 12
3 2 12 5
3 5 12 20
3 5 20 27
3 27 20 24
3 15 7 14
3 14 7 6
3 7 11 6
3 6 11 10
3 11 19 10
3 10 19 18
3 19 15 18
3 18 15 14
3 14 6 18
3 18 6 10
3 23 1 22
3 22 1 0
3 1 4 0
3 0 4 3
3 4 26 3
3 3 26 25
3 26 23 25
3 25 23 22
3 11 7 0
3 0 7 15
3 0 15 22
3 22 15 19
3 22 19 25
3 25 19 11
3 25 11 3
3 3 11 0
