ply
format ascii 1.0
comment Exported from Blender-2.82 (sub 7)
element vertex 196
property float x
property float y
property float z
element face 388
property list uchar int vertex_indices
end_header
-0.022500001 -0.022500001 -0.02
-0.022500001 -0.022500001 0
-0.022500001 -0.022500001 0.02
-0.022500001 0.022500001 -0.02
-0.022500001 0.022500001 0
-0.022500001 0.022500001 0.02
-0.02125 0 -0.059999999
-0.02125 0 -0.02
-0.02125 0 0.02
-0.02125 0 0.059999999
-0.021052076 -0.0028935412 -0.059999999
-0.021052076 -0.0028935412 -0.02
-0.021052076 -0.0028935412 0.02
-0.021052076 -0.0028935412 0.059999999
-0.021052076 0.0028935412 -0.059999999
-0.021052076 0.0028935412 -0.02
-0.021052076 0.0028935412 0.02
-0.021052076 0.0028935412 0.059999999
-0.020461991 -0.0057331813 -0.059999999
-0.020461991 -0.0057331813 -0.02
-0.020461991 -0.0057331813 0.02
-0.020461991 -0.0057331813 0.059999999
-0.020461991 0.0057331813 -0.059999999
-0.020461991 0.0057331813 -0.02
-0.020461991 0.0057331813 0.02
-0.020461991 0.0057331813 0.059999999
-0.019490739 -0.008466023 -0.059999999
-0.019490739 -0.008466023 -0.02
-0.019490739 -0.008466023 0.02
-0.019490739 -0.008466023 0.059999999
-0.019490739 0.008466023 -0.059999999
-0.019490739 0.008466023 -0.02
-0.019490739 0.008466023 0.02
-0.019490739 0.008466023 0.059999999
-0.018156413 -0.011041159 -0.059999999
-0.018156413 -0.011041159 -0.02
-0.018156413 -0.011041159 0.02
-0.018156413 -0.011041159 0.059999999
-0.018156413 0.011041159 -0.059999999
-0.018156413 0.011041159 -0.02
-0.018156413 0.011041159 0.02
-0.018156413 0.011041159 0.059999999
-0.016483866 -0.013410619 -0.059999999
-0.016483866 -0.013410619 -0.02
-0.016483866 -0.013410619 0.02
-0.016483866 -0.013410619 0.059999999
-0.016483866 0.013410619 -0.059999999
-0.016483866 0.013410619 -0.02
-0.016483866 0.013410619 0.02
-0.016483866 0.013410619 0.059999999
-0.014504254 -0.015530264 -0.059999999
-0.014504254 -0.015530264 -0.02
-0.014504254 -0.015530264 0.02
-0.014504254 -0.015530264 0.059999999
-0.014504254 0.015530264 -0.059999999
-0.014504254 0.015530264 -0.02
-0.014504254 0.015530264 0.02
-0.014504254 0.015530264 0.059999999
-0.012254457 -0.017360611 -0.059999999
-0.012254457 -0.017360611 -0.02
-0.012254457 -0.017360611 0.02
-0.012254457 -0.017360611 0.059999999
-0.012254457 0.017360611 -0.059999999
-0.012254457 0.017360611 -0.02
-0.012254457 0.017360611 0.02
-0.012254457 0.017360611 0.059999999
-0.0097763818 -0.018867562 -0.059999999
-0.0097763818 -0.018867562 -0.02
-0.0097763818 -0.018867562 0.02
-0.0097763818 -0.018867562 0.059999999
-0.0097763818 0.018867562 -0.059999999
-0.0097763818 0.018867562 -0.02
-0.0097763818 0.018867562 0.02
-0.0097763818 0.018867562 0.059999999
-0.0071161916 -0.020023044 -0.059999999
-0.0071161916 -0.020023044 -0.02
-0.0071161916 -0.020023044 0.02
-0.0071161916 -0.020023044 0.059999999
-0.0071161916 0.020023044 -0.059999999
-0.0071161916 0.020023044 -0.02
-0.0071161916 0.020023044 0.02
-0.0071161916 0.020023044 0.059999999
-0.0043234401 -0.020805538 -0.059999999
-0.0043234401 -0.020805538 -0.02
-0.0043234401 -0.020805538 0.02
-0.0043234401 -0.020805538 0.059999999
-0.0043234401 0.020805538 -0.059999999
-0.0043234401 0.020805538 -0.02
-0.0043234401 0.020805538 0.02
-0.0043234401 0.020805538 0.059999999
-0.0014501513 -0.021200461 -0.059999999
-0.0014501513 -0.021200461 -0.02
-0.0014501513 -0.021200461 0.02
-0.0014501513 -0.021200461 0.059999999
-0.0014501513 0.021200461 -0.059999999
-0.0014501513 0.021200461 -0.02
-0.0014501513 0.021200461 0.02
-0.0014501513 0.021200461 0.059999999
0.0014501513 -0.021200461 -0.059999999
0.0014501513 -0.021200461 -0.02
0.0014501513 -0.021200461 0.02
0.0014501513 -0.021200461 0.059999999
0.0014501513 0.021200461 -0.059999999
0.0014501513 0.021200461 -0.02
0.0014501513 0.021200461 0.02
0.0014501513 0.021200461 0.059999999
0.0043234401 -0.020805538 -0.059999999
0.0043234401 -0.020805538 -0.02
0.0043234401 -0.020805538 0.02
0.0043234401 -0.020805538 0.059999999
0.0043234401 0.020805538 -0.059999999
0.0043234401 0.020805538 -0.02
0.0043234401 0.020805538 0.02
0.0043234401 0.020805538 0.059999999
0.0071161916 -0.020023044 -0.059999999
0.0071161916 -0.020023044 -0.02
0.0071161916 -0.020023044 0.02
0.0071161916 -0.020023044 0.059999999
0.0071161916 0.020023044 -0.059999999
0.0071161916 0.020023044 -0.02
0.0071161916 0.020023044 0.02
0.0071161916 0.020023044 0.059999999
0.0097763818 -0.018867562 -0.059999999
0.0097763818 -0.018867562 -0.02
0.0097763818 -0.018867562 0.02
0.0097763818 -0.018867562 0.059999999
0.0097763818 0.018867562 -0.059999999
0.0097763818 0.018867562 -0.02
0.0097763818 0.018867562 0.02
0.0097763818 0.018867562 0.059999999
0.012254457 -0.017360611 -0.059999999
0.012254457 -0.017360611 -0.02
0.012254457 -0.017360611 0.02
0.012254457 -0.017360611 0.059999999
0.012254457 0.017360611 -0.059999999
0.012254457 0.017360611 -0.02
0.012254457 0.017360611 0.02
0.012254457 0.017360611 0.059999999
0.014504254 -0.015530264 -0.059999999
0.014504254 -0.015530264 -0.02
0.014504254 -0.015530264 0.02
0.014504254 -0.015530264 0.059999999
0.014504254 0.015530264 -0.059999999
0.014504254 0.015530264 -0.02
0.014504254 0.015530264 0.02
0.014504254 0.015530264 0.059999999
0.016483866 -0.013410619 -0.059999999
0.016483866 -0.013410619 -0.02
0.016483866 -0.013410619 0.02
0.016483866 -0.013410619 0.059999999
0.016483866 0.013410619 -0.059999999
0.016483866 0.013410619 -0.02
0.016483866 0.013410619 0.02
0.016483866 0.013410619 0.059999999
0.018156413 -0.011041159 -0.059999999
0.018156413 -0.011041159 -0.02
0.018156413 -0.011041159 0.02
0.018156413 -0.011041159 0.059999999
0.018156413 0.011041159 -0.059999999
0.018156413 0.011041159 -0.02
0.018156413 0.011041159 0.02
0.018156413 0.011041159 0.059999999
0.019490739 -0.008466023 -0.059999999
0.019490739 -0.008466023 -0.02
0.019490739 -0.008466023 0.02
0.019490739 -0.008466023 0.059999999
0.019490739 0.008466023 -0.059999999
0.019490739 0.008466023 -0.02
0.019490739 0.008466023 0.02
0.019490739 0.008466023 0.059999999
0.020461991 -0.0057331813 -0.059999999
0.020461991 -0.0057331813 -0.02
0.020461991 -0.0057331813 0.02
0.020461991 -0.0057331813 0.059999999
0.020461991 0.0057331813 -0.059999999
0.020461991 0.0057331813 -0.02
0.020461991 0.0057331813 0.02
0.020461991 0.0057331813 0.059999999
0.021052076 -0.0028935412 -0.059999999
0.021052076 -0.0028935412 -0.02
0.021052076 -0.0028935412 0.02
0.021052076 -0.0028935412 0.059999999
0.021052076 0.0028935412 -0.059999999
0.021052076 0.0028935412 -0.02
0.021052076 0.0028935412 0.02
0.021052076 0.0028935412 0.059999999
0.02125 2.6023745e-18 -0.059999999
0.02125 2.6023745e-18 -0.02
0.02125 2.6023745e-18 0.02
0.02125 2.6023745e-18 0.059999999
0.022500001 -0.022500001 -0.02
0.022500001 -0.022500001 0
0.022500001 -0.022500001 0.02
0.022500001 0.022500001 -0.02
0.022500001 0.022500001 0
0.022500001 0.022500001 0.02
3 181 180 189
3 189 180 188
3 189 188 185
3 185 188 184
3 185 184 177
3 177 184 176
3 177 176 169
3 169 176 168
3 169 168 161
3 161 168 160
3 161 160 153
3 153 160 152
3 153 152 145
3 145 152 144
3 145 144 137
3 137 144 136
3 137 136 129
3 129 136 128
3 129 128 121
3 121 128 120
3 121 120 113
3 113 120 112
3 113 112 105
3 105 112 104
3 105 104 97
3 97 104 96
3 97 96 89
3 89 96 88
3 89 88 81
3 81 88 80
3 81 80 73
3 73 80 72
3 73 72 65
3 65 72 64
3 65 64 57
3 57 64 56
3 57 56 49
3 49 56 48
3 49 48 41
3 41 48 40
3 41 40 33
3 33 40 32
3 33 32 25
3 25 32 24
3 25 24 17
3 17 24 16
3 17 16 9
3 9 16 8
3 9 8 13
3 13 8 12
3 13 12 21
3 21 12 20
3 21 20 29
3 29 20 28
3 29 28 37
3 37 28 36
3 37 36 45
3 45 36 44
3 45 44 53
3 53 44 52
3 53 52 61
3 61 52 60
3 61 60 69
3 69 60 68
3 69 68 77
3 77 68 76
3 77 76 85
3 85 76 84
3 85 84 93
3 93 84 92
3 93 92 101
3 101 92 100
3 101 100 109
3 109 100 108
3 109 108 117
3 117 108 116
3 117 116 125
3 125 116 124
3 125 124 133
3 133 124 132
3 133 132 141
3 141 132 140
3 141 140 149
3 149 140 148
3 149 148 157
3 157 148 156
3 157 156 165
3 165 156 164
3 165 164 173
3 173 164 172
3 173 172 181
3 181 172 180
3 185 17 189
3 189 17 9
3 189 9 181
3 181 9 13
3 181 13 173
3 173 13 21
3 173 21 165
3 165 21 29
3 165 29 157
3 157 29 37
3 157 37 149
3 149 37 45
3 149 45 141
3 141 45 53
3 141 53 133
3 133 53 61
3 133 61 125
3 125 61 69
3 125 69 117
3 117 69 77
3 117 77 109
3 109 77 85
3 109 85 101
3 101 85 93
3 17 185 25
3 25 185 177
3 25 177 33
3 33 177 169
3 33 169 41
3 41 169 161
3 41 161 49
3 49 161 153
3 49 153 57
3 57 153 145
3 57 145 65
3 65 145 137
3 65 137 73
3 73 137 129
3 73 129 81
3 81 129 121
3 81 121 89
3 89 121 113
3 89 113 97
3 97 113 105
3 1 191 2
3 2 191 192
3 4 1 5
3 5 1 2
3 194 4 195
3 195 4 5
3 191 194 192
3 192 194 195
3 180 192 188
3 188 192 195
3 188 195 184
3 184 195 176
3 176 195 168
3 168 195 160
3 160 195 152
3 152 195 144
3 144 195 136
3 136 195 128
3 128 195 120
3 120 195 112
3 112 195 104
3 104 195 5
3 104 5 96
3 96 5 88
3 88 5 80
3 80 5 72
3 72 5 64
3 64 5 56
3 56 5 48
3 48 5 40
3 40 5 32
3 32 5 24
3 24 5 16
3 16 5 8
3 8 5 2
3 8 2 12
3 12 2 20
3 20 2 28
3 28 2 36
3 36 2 44
3 44 2 52
3 52 2 60
3 60 2 68
3 68 2 76
3 76 2 84
3 84 2 92
3 92 2 192
3 92 192 100
3 100 192 108
3 108 192 116
3 116 192 124
3 124 192 132
3 132 192 140
3 140 192 148
3 148 192 156
3 156 192 164
3 164 192 172
3 172 192 180
3 182 183 186
3 186 183 187
3 186 187 178
3 178 187 179
3 178 179 170
3 170 179 171
3 170 171 162
3 162 171 163
3 162 163 154
3 154 163 155
3 154 155 146
3 146 155 147
3 146 147 138
3 138 147 139
3 138 139 130
3 130 139 131
3 130 131 122
3 122 131 123
3 122 123 114
3 114 123 115
3 114 115 106
3 106 115 107
3 106 107 98
3 98 107 99
3 98 99 90
3 90 99 91
3 90 91 82
3 82 91 83
3 82 83 74
3 74 83 75
3 74 75 66
3 66 75 67
3 66 67 58
3 58 67 59
3 58 59 50
3 50 59 51
3 50 51 42
3 42 51 43
3 42 43 34
3 34 43 35
3 34 35 26
3 26 35 27
3 26 27 18
3 18 27 19
3 18 19 10
3 10 19 11
3 10 11 6
3 6 11 7
3 6 7 14
3 14 7 15
3 14 15 22
3 22 15 23
3 22 23 30
3 30 23 31
3 30 31 38
3 38 31 39
3 38 39 46
3 46 39 47
3 46 47 54
3 54 47 55
3 54 55 62
3 62 55 63
3 62 63 70
3 70 63 71
3 70 71 78
3 78 71 79
3 78 79 86
3 86 79 87
3 86 87 94
3 94 87 95
3 94 95 102
3 102 95 103
3 102 103 110
3 110 103 111
3 110 111 118
3 118 111 119
3 118 119 126
3 126 119 127
3 126 127 134
3 134 127 135
3 134 135 142
3 142 135 143
3 142 143 150
3 150 143 151
3 150 151 158
3 158 151 159
3 158 159 166
3 166 159 167
3 166 167 174
3 174 167 175
3 174 175 182
3 182 175 183
3 178 10 186
3 186 10 6
3 186 6 182
3 182 6 14
3 182 14 174
3 174 14 22
3 174 22 166
3 166 22 30
3 166 30 158
3 158 30 38
3 158 38 150
3 150 38 46
3 150 46 142
3 142 46 54
3 142 54 134
3 134 54 62
3 134 62 126
3 126 62 70
3 126 70 118
3 118 70 78
3 118 78 110
3 110 78 86
3 110 86 102
3 102 86 94
3 10 178 18
3 18 178 170
3 18 170 26
3 26 170 162
3 26 162 34
3 34 162 154
3 34 154 42
3 42 154 146
3 42 146 50
3 50 146 138
3 50 138 58
3 58 138 130
3 58 130 66
3 66 130 122
3 66 122 74
3 74 122 114
3 74 114 82
3 82 114 106
3 82 106 90
3 90 106 98
3 191 1 190
3 190 1 0
3 1 4 0
3 0 4 3
3 4 194 3
3 3 194 193
3 194 191 193
3 193 191 190
3 183 193 187
3 187 193 190
3 187 190 179
3 179 190 171
3 171 190 163
3 163 190 155
3 155 190 147
3 147 190 139
3 139 190 131
3 131 190 123
3 123 190 115
3 115 190 107
3 107 190 99
3 99 190 0
3 99 0 91
3 91 0 83
3 83 0 75
3 75 0 67
3 67 0 59
3 59 0 51
3 51 0 43
3 43 0 35
3 35 0 27
3 27 0 19
3 19 0 11
3 11 0 7
3 7 0 3
3 7 3 15
3 15 3 23
3 23 3 31
3 31 3 39
3 39 3 47
3 47 3 55
3 55 3 63
3 63 3 71
3 71 3 79
3 79 3 87
3 87 3 95
3 95 3 193
3 95 193 103
3 103 193 111
3 111 193 119
3 119 193 127
3 127 193 135
3 135 193 143
3 143 193 151
3 151 193 159
3 159 193 167
3 167 193 175
3 175 193 183
